<?xml version="1.0" standalone="no"?>
<!DOCTYPE svg PUBLIC "-//W3C//DTD SVG 20010904//EN"
 "http://www.w3.org/TR/2001/REC-SVG-20010904/DTD/svg10.dtd">
<svg version="1.0" xmlns="http://www.w3.org/2000/svg"
 width="416.000000pt" height="416.000000pt" viewBox="0 0 416.000000 416.000000"
 preserveAspectRatio="xMidYMid meet">
<metadata>
Created by potrace 1.14, written by Peter Selinger 2001-2017
</metadata>
<g transform="translate(0.000000,416.000000) scale(0.100000,-0.100000)"
fill="#000000" stroke="none">
<path d="M0 2080 l0 -2080 2080 0 2080 0 0 2080 0 2080 -2080 0 -2080 0 0
-2080z m1656 1112 c17 -35 26 -40 19 -11 -8 31 11 49 20 19 3 -11 13 -20 21
-20 8 0 14 -7 14 -15 0 -8 12 -28 28 -45 29 -33 118 -61 234 -75 37 -4 58 -12
62 -22 4 -9 12 -13 23 -9 10 4 14 4 10 0 -4 -4 5 -18 19 -31 25 -23 25 -25 9
-37 -14 -10 -15 -15 -5 -21 8 -5 11 -4 6 3 -3 6 2 13 13 17 10 3 22 16 26 28
7 22 8 22 12 -3 9 -49 39 -66 145 -84 30 -6 41 -3 58 14 12 12 28 19 35 16 19
-7 24 26 6 40 -11 8 -6 10 20 7 76 -9 77 -10 88 -66 6 -28 12 -74 13 -102 2
-35 7 -49 16 -47 9 2 10 -3 3 -16 -5 -10 -7 -36 -4 -58 4 -29 -1 -52 -15 -80
-11 -22 -23 -56 -27 -76 -6 -33 -3 -40 37 -82 39 -40 42 -46 23 -46 -12 0 -32
9 -45 20 -36 31 -43 25 -36 -29 4 -27 4 -68 0 -90 -5 -33 -11 -41 -28 -41 -19
0 -25 13 -50 123 -16 67 -31 116 -34 109 -2 -8 -12 2 -22 25 -10 21 -34 56
-54 78 l-35 40 23 -47 c13 -25 33 -60 45 -76 30 -43 26 -47 -14 -15 -20 15
-45 46 -56 68 -12 22 -39 55 -61 73 -34 27 -48 32 -94 32 -59 0 -127 22 -161
53 -21 19 -24 19 -41 4 -10 -10 -23 -17 -29 -17 -6 0 -21 -8 -34 -18 -13 -10
-33 -22 -43 -26 -19 -7 -19 -6 -3 12 17 18 16 20 -10 37 -15 10 -43 19 -62 21
-24 2 -31 0 -21 -7 13 -7 12 -9 -2 -9 -14 0 -16 -4 -8 -24 7 -19 4 -28 -16
-47 -21 -20 -24 -31 -24 -91 0 -49 6 -81 20 -110 11 -23 20 -51 20 -62 0 -11
17 -37 37 -58 32 -33 43 -38 81 -38 36 0 49 -5 73 -31 28 -31 38 -59 20 -59
-5 0 -19 15 -30 34 -22 35 -39 46 -72 46 -17 0 -16 -4 11 -30 18 -18 25 -30
17 -30 -8 0 -21 9 -28 19 -8 11 -25 22 -39 26 l-25 8 20 -23 c32 -36 96 -69
183 -94 50 -14 100 -37 130 -60 28 -20 71 -46 98 -57 26 -12 78 -50 116 -86
70 -65 226 -153 274 -153 17 0 24 -8 29 -30 4 -16 16 -37 28 -46 21 -15 21
-16 -15 -12 -48 5 -49 -9 -4 -56 39 -42 56 -45 56 -11 0 14 3 25 7 25 15 0 43
-34 43 -53 0 -10 8 -31 18 -45 31 -45 35 -59 9 -27 l-26 30 1 -55 c1 -30 -1
-100 -4 -155 l-5 -100 -32 -17 c-38 -19 -83 -59 -76 -66 3 -3 20 8 38 24 17
16 26 22 20 14 -19 -21 -16 -30 12 -30 35 0 31 -19 -9 -35 -18 -8 -40 -24 -48
-37 -9 -13 -33 -32 -54 -43 -22 -11 -43 -25 -49 -31 -5 -5 -28 -23 -49 -39
-35 -25 -37 -29 -20 -36 17 -7 17 -8 -4 -8 -37 -1 -99 -38 -105 -63 -4 -12 -1
-29 5 -37 6 -9 -1 -4 -15 11 -24 26 -27 27 -54 13 -15 -8 -37 -15 -49 -15 -11
0 -42 -7 -68 -16 -37 -13 -74 -15 -174 -11 -130 4 -199 18 -359 68 -50 16
-100 29 -111 29 -11 0 -25 7 -32 15 -31 37 -91 -4 -107 -73 -7 -30 -14 -38
-36 -40 l-27 -3 0 105 c0 58 4 107 9 111 6 3 5 18 -3 38 -9 23 -11 88 -8 240
l4 208 27 -3 c19 -2 27 -9 29 -28 5 -44 25 -114 44 -152 10 -21 18 -51 18 -69
0 -37 24 -73 103 -155 65 -68 161 -122 262 -148 53 -14 62 -14 75 -1 13 13 12
15 -5 15 -11 1 -31 7 -45 15 -23 13 -22 14 26 8 29 -3 54 -1 57 4 4 5 -3 26
-13 46 -11 21 -17 37 -13 37 12 0 43 -33 43 -47 0 -7 7 -16 15 -19 8 -4 12
-11 9 -16 -6 -9 63 -7 139 4 23 3 22 24 -4 41 -11 8 -23 29 -25 45 -4 27 -2
31 23 34 l28 3 3 88 3 88 -35 35 c-33 33 -33 34 -7 28 38 -10 48 -21 54 -57 3
-18 9 -51 12 -74 5 -29 4 -48 -5 -58 -17 -20 -8 -27 36 -29 35 -1 39 3 70 54
45 75 45 127 0 225 -20 42 -45 80 -60 90 -15 10 -63 21 -113 27 -98 11 -97 10
-148 57 -26 24 -39 30 -45 21 -5 -8 -9 -7 -13 5 -4 9 -3 13 3 10 6 -3 10 5 10
18 0 14 7 30 15 37 8 7 15 20 15 29 0 18 -63 58 -68 43 -1 -5 -13 -7 -27 -5
-17 4 -32 -4 -58 -31 -35 -36 -47 -37 -47 -4 0 11 -11 44 -25 75 -19 41 -23
58 -15 68 9 10 6 16 -11 26 -17 9 -24 9 -27 0 -7 -21 -30 -11 -60 24 -22 27
-39 37 -73 43 -34 6 -47 14 -57 35 -7 15 -26 34 -43 42 -22 12 -29 22 -29 46
0 24 -4 30 -15 25 -19 -7 -19 5 0 30 20 27 19 31 -17 65 -18 16 -33 37 -34 47
-1 9 -2 54 -3 100 -1 80 -2 83 -23 81 -13 -2 -29 1 -37 5 -10 6 -12 5 -7 -2 5
-8 -1 -12 -16 -12 -13 0 -36 -7 -52 -15 -33 -18 -71 -21 -46 -5 13 9 13 12 -3
21 -18 11 -24 49 -7 49 6 0 10 10 11 23 0 19 2 20 11 6 11 -16 14 -15 38 2 16
12 47 21 79 24 29 2 58 8 63 13 8 8 45 102 48 120 0 1 -8 2 -17 2 -15 0 -14 4
6 19 20 16 23 24 18 56 -7 46 -19 54 -72 56 -22 0 -48 4 -57 7 -31 12 19 59
78 73 60 15 115 42 135 65 12 16 12 17 -1 9 -29 -16 35 46 68 67 27 17 42 19
80 13 73 -11 102 -9 119 8 24 23 9 67 -22 67 -27 0 -55 33 -55 66 0 40 27 44
46 6z m744 -209 c-8 -3 -31 -19 -51 -34 -20 -16 -40 -29 -44 -29 -4 0 12 16
36 34 24 19 51 35 59 35 13 -1 13 -1 0 -6z m-630 -337 c0 -2 -7 -7 -16 -10 -8
-3 -12 -2 -9 4 6 10 25 14 25 6z m-54 -41 c-9 -13 -20 -42 -25 -62 l-9 -38 -1
36 c-1 23 7 46 20 63 26 33 37 34 15 1z m288 -119 c9 -19 16 -42 15 -53 0 -14
-49 78 -49 94 0 13 20 -11 34 -41z m-874 -121 c0 -21 39 -40 53 -26 20 20 28
11 13 -16 -20 -39 -116 -136 -116 -118 0 8 16 32 35 54 19 21 35 46 35 55 0
21 -45 31 -76 17 -31 -14 -34 -14 -34 -1 0 12 59 50 78 50 6 0 12 -7 12 -15z
m887 -47 c-3 -8 -6 -5 -6 6 -1 11 2 17 5 13 3 -3 4 -12 1 -19z m644 -7 c13
-11 20 -23 16 -27 -4 -4 -20 4 -35 19 -30 31 -16 37 19 8z m-654 -93 c-2 -13
-4 -3 -4 22 0 25 2 35 4 23 2 -13 2 -33 0 -45z m800 -5 c-3 -10 -5 -4 -5 12 0
17 2 24 5 18 2 -7 2 -21 0 -30z m-1549 -1098 l-1 -60 -7 50 c-5 28 -8 64 -8
80 -1 26 1 27 8 10 5 -11 8 -47 8 -80z m1322 -95 c0 -5 -5 -10 -11 -10 -5 0
-7 5 -4 10 3 6 8 10 11 10 2 0 4 -4 4 -10z m17 -37 c-9 -9 -20 -14 -24 -10 -3
4 2 14 13 21 25 19 33 10 11 -11z m-1318 -88 c0 -11 -6 -2 -14 20 -8 22 -15
49 -14 60 0 11 6 2 14 -20 8 -22 15 -49 14 -60z m1228 73 c-3 -8 -6 -5 -6 6
-1 11 2 17 5 13 3 -3 4 -12 1 -19z m-1080 -80 c-3 -8 -6 -5 -6 6 -1 11 2 17 5
13 3 -3 4 -12 1 -19z m232 -53 c44 -22 74 -55 51 -55 -8 0 -94 53 -114 72 -20
17 15 8 63 -17z m641 10 c16 -19 3 -19 -30 0 -24 13 -24 14 -4 15 12 0 27 -7
34 -15z m-207 -32 c2 -5 7 -26 11 -48 l6 -40 -17 32 c-12 24 -26 35 -52 40
l-36 7 30 7 c43 10 53 10 58 2z m150 -28 c-3 -9 -8 -14 -10 -11 -3 3 -2 9 2
15 9 16 15 13 8 -4z"/>
<path d="M1645 2950 c3 -5 15 -10 26 -10 11 0 17 5 14 10 -3 6 -15 10 -26 10
-11 0 -17 -4 -14 -10z"/>
<path d="M1576 2922 c-3 -5 1 -9 9 -9 8 0 15 4 15 9 0 4 -4 8 -9 8 -6 0 -12
-4 -15 -8z"/>
<path d="M1352 2808 c1 -21 5 -38 10 -38 11 0 10 41 -2 60 -7 11 -9 5 -8 -22z"/>
<path d="M1750 2780 c-18 -12 -2 -12 25 0 13 6 15 9 5 9 -8 0 -22 -4 -30 -9z"/>
<path d="M1760 2740 c0 -10 46 -40 60 -40 5 0 10 3 10 8 -1 9 -70 42 -70 32z"/>
<path d="M2000 2746 c0 -3 9 -10 20 -16 11 -6 20 -8 20 -6 0 3 -9 10 -20 16
-11 6 -20 8 -20 6z"/>
<path d="M2328 2733 c7 -3 16 -2 19 1 4 3 -2 6 -13 5 -11 0 -14 -3 -6 -6z"/>
<path d="M2345 2700 c3 -5 8 -10 11 -10 2 0 4 5 4 10 0 6 -5 10 -11 10 -5 0
-7 -4 -4 -10z"/>
<path d="M2482 2580 c0 -19 2 -27 5 -17 2 9 2 25 0 35 -3 9 -5 1 -5 -18z"/>
<path d="M1535 2528 c-10 -39 -3 -51 49 -86 31 -21 48 -27 52 -20 4 7 -1 17
-10 22 -45 27 -66 50 -75 79 l-8 32 -8 -27z"/>
<path d="M1261 2504 c0 -11 3 -14 6 -6 3 7 2 16 -1 19 -3 4 -6 -2 -5 -13z"/>
<path d="M1192 2494 c9 -9 24 -14 32 -11 26 10 18 23 -16 25 -31 3 -32 2 -16
-14z"/>
<path d="M1143 2468 c-32 -15 -29 -30 5 -22 36 9 43 14 37 25 -7 11 -14 11
-42 -3z"/>
<path d="M1650 2295 c7 -9 15 -13 17 -11 7 7 -7 26 -19 26 -6 0 -6 -6 2 -15z"/>
<path d="M1699 2207 c5 -5 21 -7 37 -5 27 3 26 4 -8 9 -22 3 -34 1 -29 -4z"/>
<path d="M1811 2064 c0 -11 3 -14 6 -6 3 7 2 16 -1 19 -3 4 -6 -2 -5 -13z"/>
<path d="M1795 2020 c10 -11 20 -18 23 -15 7 6 -18 35 -31 35 -5 0 -2 -9 8
-20z"/>
<path d="M2130 1995 c0 -8 73 -53 100 -60 24 -8 24 -7 -5 17 -45 38 -95 60
-95 43z"/>
<path d="M2400 1811 c0 -8 41 -23 47 -17 2 1 -8 8 -22 14 -14 6 -25 8 -25 3z"/>
<path d="M2467 1779 c7 -7 15 -10 18 -7 3 3 -2 9 -12 12 -14 6 -15 5 -6 -5z"/>
<path d="M2510 1718 c25 -56 42 -61 38 -11 -3 40 -12 53 -40 53 -16 0 -16 -3
2 -42z"/>
<path d="M1970 1630 c0 -5 5 -10 11 -10 5 0 7 5 4 10 -3 6 -8 10 -11 10 -2 0
-4 -4 -4 -10z"/>
<path d="M1992 1604 c-15 -11 -14 -13 8 -18 14 -2 49 -7 78 -10 75 -7 108 -35
148 -123 19 -41 34 -84 34 -96 1 -21 1 -21 15 -3 12 16 10 27 -27 100 -47 95
-78 131 -126 147 -48 16 -110 17 -130 3z"/>
<path d="M2270 1486 c0 -2 7 -7 16 -10 8 -3 12 -2 9 4 -6 10 -25 14 -25 6z"/>
<path d="M2630 1368 c0 -7 5 -20 10 -28 8 -12 10 -11 10 7 0 12 -4 25 -10 28
-5 3 -10 0 -10 -7z"/>
<path d="M1358 1158 c-3 -69 1 -141 9 -149 4 -4 42 -5 83 -1 l75 7 -25 23
c-14 13 -46 37 -72 54 -33 22 -45 35 -38 43 12 15 1 55 -16 55 -9 0 -15 -12
-16 -32z"/>
<path d="M2200 1081 c0 -5 -11 -12 -25 -15 -14 -4 -25 -11 -25 -17 0 -6 -4 -8
-9 -5 -5 3 -11 -1 -15 -9 -7 -19 8 -19 24 0 7 8 16 13 20 10 4 -2 18 7 30 20
13 14 18 25 12 25 -7 0 -12 -4 -12 -9z"/>
</g>
</svg>
